<?xml version="1.0" standalone="no"?>
<!DOCTYPE svg PUBLIC "-//W3C//DTD SVG 20010904//EN"
 "http://www.w3.org/TR/2001/REC-SVG-20010904/DTD/svg10.dtd">
<svg version="1.0" xmlns="http://www.w3.org/2000/svg"
 width="512.000000pt" height="512.000000pt" viewBox="0 0 512.000000 512.000000"
 preserveAspectRatio="xMidYMid meet">
<metadata>
Created by potrace 1.11, written by Peter Selinger 2001-2013
</metadata>
<g transform="translate(0.000000,512.000000) scale(0.100000,-0.100000)"
fill="#000000" stroke="none">
<path d="M390 5104 c-30 -8 -80 -26 -110 -41 -72 -35 -188 -151 -223 -223 -61
-126 -57 23 -57 -2280 0 -2303 -4 -2154 57 -2280 35 -72 151 -188 223 -223
126 -61 -23 -57 2280 -57 2303 0 2154 -4 2280 57 72 35 188 151 223 223 61
126 57 -23 57 2280 0 2303 4 2154 -57 2280 -35 72 -151 188 -223 223 -127 61
23 57 -2285 56 -1816 0 -2118 -2 -2165 -15z m3150 -658 c306 -34 615 -88 638
-110 10 -10 8 -33 -11 -125 -14 -61 -28 -115 -31 -119 -4 -3 -39 -9 -79 -13
-208 -20 -336 -163 -377 -424 -5 -33 -43 -472 -85 -975 -41 -503 -79 -952 -85
-997 -38 -300 -175 -557 -392 -737 -224 -186 -515 -286 -873 -302 -326 -15
-882 54 -1267 157 -46 12 -47 20 -18 146 32 136 26 129 117 136 185 15 315
102 399 268 70 140 76 181 184 1258 105 1058 112 1108 178 1252 88 196 247
354 457 458 150 74 298 113 545 145 73 9 571 -4 700 -18z"/>
<path d="M3715 4123 c-220 -31 -370 -148 -425 -333 -31 -104 -35 -144 -120
-1156 -88 -1057 -90 -1070 -169 -1238 -22 -47 -61 -118 -88 -158 -60 -91 -218
-251 -302 -306 -74 -49 -68 -51 37 -16 335 112 576 384 641 724 6 30 47 492
91 1025 44 534 85 995 91 1025 16 87 57 203 88 251 50 80 130 147 208 175 37
13 37 13 8 12 -16 -1 -43 -3 -60 -5z"/>
</g>
</svg>
